<?xml version="1.0" encoding="UTF-8"?>
<svg id="Layer_2" data-name="Layer 2" xmlns="http://www.w3.org/2000/svg" viewBox="0 0 737.12 956.62">
  <defs>
    <style>
      .cls-1, .cls-2 {
        fill: #b18f35;
      }

      .cls-3 {
        fill: #f6f28b;
      }

      .cls-3, .cls-4, .cls-5, .cls-2, .cls-6, .cls-7, .cls-8 {
        fill-rule: evenodd;
      }

      .cls-4 {
        fill: #0d7780;
      }

      .cls-5 {
        fill: #232037;
      }

      .cls-6 {
        fill: #da2724;
      }

      .cls-7 {
        fill: #e9a422;
      }

      .cls-8 {
        fill: #fff;
      }
    </style>
  </defs>
  <g id="Layer_1-2" data-name="Layer 1">
    <g id="Layer_1-3" data-name="Layer_1">
      <g id="_199416112" data-name=" 199416112">
        <g>
          <path id="_199196008" data-name=" 199196008" class="cls-6" d="M368.56,60.83c187.21,0,339.03,151.82,339.03,339.03,0,71.08-21.91,137.04-59.31,191.55h.21l-1.25,1.5-278.69,334.75L89.88,592.92l-1.25-1.5h.21c-37.4-54.5-59.31-120.47-59.31-191.55C29.53,212.65,181.35,60.83,368.56,60.83h0Z"/>
          <path id="_199196152" data-name=" 199196152" class="cls-2" d="M442.36,24.34c6.55,5.61,12.88,11.71,18.54,18.35,5.88,6.9,11.07,14.41,15.05,22.61l1.13,2.32,.19,2.54,1.88,24.69c.36,4.6,.73,9.43,1.16,14.6l1.65,.36,9.84,2.24,.67,10.03c1.12,16.78,1.9,30.33,.79,44.02-1.14,14.15-4.25,28.06-10.89,44.92l-1.25,3.18-2.71,2.26c-1.85,1.55-3.96,3.23-6.27,4.8l-.09,.06c-.03,1.3-.04,2.69-.04,4.23v3.04l-1.32,2.78c-3.41,7.16-5,10.48-5.77,12.18l11.64,3.85c15.61,5.16,30.78,10.18,56.71,18.88l31.79,4.61,1.01,.15,.79,.22,.08,.02h0c3.44,.98,7.04,2.17,10.76,3.56,3.53,1.31,7.04,2.77,10.5,4.35,17.54,8.02,34.02,19.33,47.92,31.58l1.3,1.15,1.02,1.54c10.43,15.84,12.69,32.37,14.28,49.26l4.68,2.93c13.41,8.42,27.04,16.99,39.58,27.43l1.76,1.47,1.1,1.76c7.35,11.79,8.18,24.77,8.96,37.16l.2,3.18c17.65,28.76,19.03,44.87,19.89,75.83v.05l.14,5.37c.57,2.23,1.44,5.24,2.31,8.33,2.79,9.86,5.74,20.3,5.74,30.55v.76l-.11,.87c-1.26,10.29-6.71,18.76-13.75,25.65-6.13,6-13.33,10.69-19.6,14.21l-3.1,1.75h-3.51c-5.08,0-9.9-.27-14.8-1h-.05c-3.84-.58-7.71-1.46-11.75-2.77-11.37,1.98-24.63,7.22-37.71,12.39-10.48,4.15-20.87,8.26-31.23,11.06l-1.76,.48h-1.8v-.05c-19.79-.02-38.99-6.66-57.3-13.82-4.32-1.69-8.33-3.33-12.48-4.96-2.99,7.74-5.4,15.11-6.23,23,3.01,1.56,5.99,3.14,9.27,5.25l2.87,1.85,1.67,3.07c6.16,11.33,6.44,20.8,5.25,30.88,2.4,.66,4.69,1.49,6.85,2.43,9.24,4.04,16.82,10.69,22.02,18.01l-201.32,241.82-201.42-241.94c6.25-8.75,16.39-16.78,28.95-20.31-1.19-10.09-.89-19.56,5.27-30.89l1.67-3.07,2.88-1.85c3.28-2.11,6.24-3.68,9.25-5.24-.84-7.9-3.25-15.26-6.23-23.02l-4.89,1.95c-20.62,8.2-42.46,16.9-64.93,16.9h-1.74l-1.75-.48-.18-.05h-.05c-10.16-2.76-20.53-6.87-30.99-11.01-13.06-5.16-26.31-10.39-37.81-12.36-4.01,1.3-7.84,2.17-11.65,2.74h-.05c-4.9,.73-9.73,1-14.8,1h-3.51l-3.1-1.75c-6.26-3.52-13.46-8.21-19.6-14.21-7.03-6.89-12.49-15.36-13.74-25.65l-.11-.87v-.86H.05c.03-10.42,2.94-20.73,5.68-30.45,.79-2.8,1.56-5.55,2.32-8.63l.13-5.07v-.05c.86-30.95,2.24-47.05,19.86-75.8l.23-3.21c.79-12.39,1.62-25.37,8.97-37.16l1.3-2.09,1.87-1.46,.04-.03,.03,.04c12.44-10.31,25.93-18.79,39.2-27.12l4.67-2.94c1.59-16.89,3.86-33.42,14.3-49.25l1.01-1.54,1.31-1.15,.07-.06v-.05c2.53-2.23,5.33-4.57,8.37-6.98,2.8-2.22,5.77-4.46,8.89-6.68,15.78-11.23,33.63-20.6,51.98-25.74l.88-.25,.87-.13,31.8-4.62c25.83-8.67,41.06-13.71,56.7-18.88l11.63-3.84c-.76-1.69-2.33-5.02-5.75-12.18l-1.32-2.78v-3.04c0-1.55-.03-2.94-.05-4.24l-.07-.05c-2.31-1.57-4.42-3.25-6.27-4.8l-2.72-2.26-1.25-3.18c-6.64-16.86-9.74-30.76-10.89-44.92-1.11-13.69-.33-27.24,.79-44.02l.67-10.03,9.85-2.24,1.63-.36c.43-5.14,.82-9.97,1.18-14.6l1.88-24.69,.19-2.61,1.12-2.31c3.95-8.11,9.13-15.61,15.05-22.55,5.67-6.64,12-12.74,18.54-18.35l.03-.02c5.4-4.62,11.56-8.62,18.24-11.97,6.62-3.32,13.57-5.95,20.63-7.86,36.66-9.97,81.67-3.31,108.7,19.86h0Z"/>
          <path id="_199086096" data-name=" 199086096" class="cls-1" d="M368.56,42.22h.03v.07c98.78,0,188.19,40.03,252.86,104.7,64.66,64.66,104.67,154.05,104.68,252.81h.07v.13h-.07c-.02,101.22-29.6,169.53-100.48,247.87l-257.09,308.82L111.47,647.8C40.6,569.47,11.01,501.16,10.99,399.94h-.07v-.13h.07c.02-98.76,40.02-188.15,104.68-252.81,64.67-64.67,154.08-104.7,252.86-104.7v-.07h.03Z"/>
          <path id="_200070840" data-name=" 200070840" class="cls-5" d="M368.56,60.83c187.21,0,339.03,151.82,339.03,339.03,0,71.08-21.91,137.04-59.31,191.55h.21l-1.25,1.5-278.69,334.75L89.88,592.92l-1.25-1.5h.21c-37.4-54.5-59.31-120.47-59.31-191.55C29.53,212.65,181.35,60.83,368.56,60.83h0Z"/>
          <g>
            <path id="_199952504" data-name=" 199952504" class="cls-3" d="M368.56,107c161.72,0,292.87,131.15,292.87,292.87s-131.15,292.87-292.87,292.87S75.7,561.59,75.7,399.87,206.84,107,368.56,107h0Z"/>
            <g>
              <path id="_199085472" data-name=" 199085472" class="cls-7" d="M487.16,131.41l-118.6,268.45V106.43c42.21,0,82.33,8.93,118.6,24.98Z"/>
              <path id="_199086120" data-name=" 199086120" class="cls-7" d="M662,399.86H368.55s268.47,118.61,268.47,118.61c16.05-36.27,24.98-76.4,24.98-118.61Z"/>
              <path id="_199085928" data-name=" 199085928" class="cls-7" d="M161.09,607.35l207.49-207.49-268.47,118.6c14.76,33.35,35.54,63.44,60.98,88.88Z"/>
              <path id="_199085592" data-name=" 199085592" class="cls-7" d="M368.56,693.3V399.86s-118.6,268.46-118.6,268.46c36.27,16.05,76.39,24.98,118.6,24.98h0Z"/>
              <path id="_199085640" data-name=" 199085640" class="cls-7" d="M637.01,281.29l-268.44,118.59,207.48-207.48c25.44,25.45,46.2,55.53,60.97,88.89h0Z"/>
              <path id="_200070288" data-name=" 200070288" class="cls-7" d="M100.1,281.29l268.45,118.59H75.12c0-42.21,8.93-82.32,24.98-118.59Z"/>
              <path id="_200070144" data-name=" 200070144" class="cls-7" d="M161.07,192.39l207.49,207.48L249.96,131.41c-33.35,14.76-63.45,35.54-88.89,60.98h0Z"/>
              <path id="_200070648" data-name=" 200070648" class="cls-7" d="M487.16,668.33l-118.6-268.46,207.48,207.49c-25.44,25.44-55.53,46.22-88.89,60.97Z"/>
            </g>
          </g>
          <path id="_200065024" data-name=" 200065024" class="cls-5" d="M433.58,34.61c12.11,10.38,23.32,22.41,30.21,36.57,1.24,16.45,2.47,32.89,3.89,49.52,3.71,.71,7.43,1.41,11.32,2.3,2.17,32.34,3.02,52.11-9.2,83.12-3.18,2.66-7.07,5.66-10.96,7.08-.18,4.07-.35,8.13-.35,12.38q-7.08,14.85-7.61,17.68c.71,3.54,1.42,7.07,2.12,10.61,25.64,8.49,51.46,16.98,77.28,25.64,10.96,1.59,21.93,3.18,32.89,4.77,23.35,6.54,45.98,20.69,64.02,36.61,9.9,15.03,11.14,32.19,12.73,49.7,16.27,10.44,33.6,20.52,48.46,32.89,6.72,10.79,6.36,24.93,7.43,37.49,18.8,29.72,18.91,44.61,19.81,78.7,2.75,11.56,7.96,25.33,7.96,37.14-1.67,13.66-15.57,23.55-26.53,29.71-9.02,0-16.8-.89-25.29-4.07-23.35,2.92-50.3,17.89-73.75,24.23-26.17,0-53.23-13.97-77.46-22.63-6.61,16.67-12.91,30.15-12.38,48.28,5.48,3.18,10.79,5.48,15.74,8.66,6.54,12.03,3.71,22.64,1.76,36.08,16.36-.71,29.49,9.29,35.24,19.54l-192.37,231.07-192.37-231.07c5.75-10.25,18.88-20.25,35.24-19.54-1.95-13.44-4.77-24.05,1.76-36.08,4.95-3.18,10.26-5.48,15.74-8.66,.53-18.13-5.77-31.6-12.38-48.28-24.23,8.66-51.29,22.63-77.46,22.63-23.44-6.34-50.39-21.31-73.75-24.23-8.49,3.18-16.27,4.07-25.29,4.07-10.95-6.17-24.86-16.06-26.53-29.71,0-11.81,5.21-25.58,7.96-37.14,.9-34.08,1.01-48.98,19.81-78.7,1.06-12.56,.71-26.71,7.43-37.49,14.86-12.38,32.19-22.46,48.46-32.89,1.59-17.51,2.83-34.66,12.73-49.7,18.04-15.92,40.67-30.06,64.02-36.61,10.96-1.59,21.93-3.18,32.89-4.77,25.82-8.67,51.64-17.15,77.28-25.64,.71-3.54,1.42-7.07,2.12-10.61q-.53-2.83-7.61-17.68c0-4.25-.18-8.31-.35-12.38-3.89-1.42-7.78-4.42-10.96-7.08-12.21-31-11.36-50.78-9.2-83.12,3.89-.89,7.61-1.59,11.32-2.3,1.42-16.62,2.65-33.07,3.89-49.52,6.89-14.16,18.1-26.18,30.21-36.57,32.88-28.19,97.16-28.19,130.04,0h0Z"/>
          <path id="_199952336" data-name=" 199952336" class="cls-4" d="M487.05,732.76c-6.89,12.79-23.85,24.52-41.61,33.33,11.79-15.25,24.81-22.97,41.61-33.33Zm13-84.36c6.32,3.15,7.54,7.01,6.91,11.73-.63,4.72-3.13,10.3-4.26,16.92-2.74,3.81-5.56,7.37-8.44,10.67-2.54,2.37-6.19,5.67-11.48,9.94-15.25,12.32-60.15,27.2-44.9,18.27,28.67-16.76,57.24-29.72,62.16-67.54h0Zm-96.2,74.72c-46.33,5.82-91.98,9.56-129.52-10.42-20.67-11-40.92-28.39-44.17-52.57-.63-4.72,.59-8.58,6.91-11.73,3.69,28.36,22.23,46.92,45.86,58.53,34.27,16.85,68.22,15.06,120.92,16.2h0Zm102.77-35.63c5.08,.24,9.25,6.82,7.23,11.83-15.9,14.09-30.44,25.14-44.82,33.47,1.89-4.21,13.34-10.72,15.15-14.59,12.61-10.47,15.09-20.69,22.44-30.72h0Zm-276.11,0c-5.08,.24-9.25,6.82-7.23,11.83,10.27,16,23.71,28.44,39.05,37.96,1.85,.84,4,1.84,6.54,3.03,17.74,8.35,48,10.43,48,10.43,0,0-2.61,0-24.52-10.43-19.91-9.48-48.49-34.64-61.83-52.83h0Zm132.01,98.92c-16.89,1.04-34.58,.2-50.22-5.53-17.24-6.32-31.2-14.45-36.53-24.34,14.55,8.97,29.71,14.12,45.27,16.99,25.72,4.73,56.95,5.3,84.02,1.73-7.68,4.36-26.3,8.34-42.54,11.16Zm55.92,19.89v-.16c22.95-16.89,41.42-39.5,65.64-54.93-20.34,29.91-32.48,39.47-65.64,55.09Zm113.63-100.08c3.43,2.01-2.95,8.05-7.57,16.36-4.71,8.48-32.22,41.31-44.56,52.7,12.69-21.46,35.47-64.8,52.13-69.06h0Zm-309.93,12.33c-5.62-8.12-6.83-12.33-17.06-12.33-3.43,2.01-.65,9.45,6.96,15.14,28.13,21.02,43.79,48.09,48.42,41.45,3.94-5.66-9.28-2.31-38.32-44.25Z"/>
          <path id="_199952744" data-name=" 199952744" class="cls-7" d="M441.87,703.05c3.18-7.96,8.49-12.38,12.56-19.45q3.54-13.09,4.95-15.74c5.16-1.35,15.39-10.94,15.29-27.73-2.15,.74-6.35,5.84-10.65,11.2-26.59,33.11-12.16-19.5-.39-25.39,2.29-.18,4.6-.35,7.07-.53,12.86-8.74,18.03-24.08,23.11-38.3,.41-.53,.76-1,1-1.37,2.67-4.02,3.9-14.4,8.88-12.51-1.88,4.99-5.55,13.54-9.13,23.17-2.3,7.25-4.42,14.5-6.54,21.76,.53,12.91,1.76,26,1.76,38.91-4.42,15.39-17.86,27.77-30.24,37.31-6.01,2.83-11.85,5.66-17.68,8.67h0Zm144.31-117.25c-29.71-8.66-58.89-20.16-88.95-26.88-24.27-8.22-49.24-15.05-73.64-22.95-6.91-2.24-17.95-3.16-28.22-4.43l-3.57-6.68-6.83,5.12c-5.73-1.09-10.47-2.57-12.96-4.84l-.18-173.49c-.26-1.59,8.95-5.92,11.73,3.54,1.19,4.04-.76,20.57-.67,24.9,.71,3.18,1.59,6.54,2.47,9.9,.53,10.08-.53,20.52,1.94,30.42q5.66,3.71,7.07,5.48c-1.37,3.39-2.63,13.05,4.78,20.16-.89-6.36-3-13.09,.35-18.92,0-6.89-5.31-6.01-8.31-11.14-1.24-8.84-1.06-16.25-1.06-24.92-2.47-10.08-2.2-22.21-2.37-26.28,.98,2.87,3.94,26.48,8.18,36.51,2.07,4.89,4.31,6.7,5.25,7.92,.92,4.28-.18,10.06,.71,14.05,1.15,5.15,17.01,52.98,15.19,56.62-3.34-.25-6,0-8.12,.55l-5.63-19.77s1.28,8.48,1.28,16.19v5.51c-2.97,2.11-3.45,4.87-3,5.57,9.31-4.56,25.01-3.48,30.67-3.3q36.61-4.77,54.83-6.54c15.92,.18,31.83,.35,47.75,.53,20.16-7.96,40.5-15.74,60.84-23.52,12.91-4.07,30.24-12.56,43.5-6.55,3.4,2.38,26.78,29.78,33.6,10-19.03-3.48-27.88-18.85-50.58-18.85-27.41,5.13-54.29,18.92-79.94,29.54-16.8-16.8-17.05-30.78-12.8-53.59,11.35-20.88,44.34-35.25,63.11-27.16,13.25,8.22,9.61,42.53,16.57,50.32,.88-5.31,3.93-18.01,4.46-29.85-1.59-5.84-5.01-3.74-7.84-8.33,13.71-37.9,38.38-1.94,60.84,11.67,9.9,8.67,10.26,19.28,11.14,32.01,5.84,13.09,17.15,24.58,19.45,38.91v35.9c2.3,10.96,5.84,22.46,6.54,33.6-3,4.42-9.9,17.87-16.8,15.03,4.42-6.01,6.54-11.14,8.31-18.57-5.87,6.41-10.16,11.67-16.35,16.09-.88-.35-5.15-.29-6.04-.47,1.95-6.19,6.15-14.51,6.68-21.05-1.85,3.74-8.77,16.06-14.89,21.34-25.06-7.39-38.15-7.17-56.77-.03,22.57-.6,38.24,.95,41.56,5.16-21.48,7.73-39.98,14.58-63.31,15.56h0Zm-268.19-128.04c1.03-5.72,2.09-9.94,3.16-13.71-2.52-2.82-7.9-7.13-17.25-7.13-13.92,0-25.64-2.93-25.64-2.93l7.33-4.4s21.98-.73,29.31-4.4c4.93-2.47,9.52-4.91,12-6.26,.03-3.72-.53-9.07,0-11.76,9.84-12.47,14.17-26.19,16.56-44.8v-.1c-2.34-1.95-6.78-5.29-11.6-7.17-7.08-2.76-23.21-8.68-23.21-8.68,0,0,20.45,1.58,29.5,4.34,3.54,1.08,5.8,1.75,7.26,2.14,.78-3.41,1.56-6.8,1.84-8.85-36.22-9.71-94.97-13.09-94.97-13.61-1.77,1.06,13.07,13.83,10.95,13.12-15.39-10.26-47.21-30.28-63.48-39.3-28.65-4.42-54.82,10.44-75.69,29-7.25,10.79-9.68,24.83-9.33,37.92,2.16-1.43,6.77,.62,7.93,2.15,4.51,.8,13.79,6.43,15.62,7.65,18.25-3.29,34.08-.36,52.1,5.37,12.21-16.18,26.93-35.87,59.6-35.23-21.36,4.8-48.34,26.53-48.72,41.53,6.61,3.6,10.65,8.36,13.19,13.88,3.12,2.86,9.77,8.73,14.78,11.52,6.77,3.76,8.27,9.02,4.89,10.53-2.4,1.07-9.7,6.87-14.29,9.48,.26,2.83,.55,5.69,.98,8.56,6.19,12.55,81.97,10.96,97.18,11.14h0Zm-167.04,128.04c29.71-8.66,58.89-20.16,88.95-26.88,24.27-8.22,49.24-15.05,73.64-22.95,6.91-2.24,17.95-3.16,28.22-4.43l3.56-6.68,6.83,5.12c5.73-1.09,10.47-2.57,12.96-4.84l.18-173.49c.26-1.59-8.95-5.92-11.73,3.54-1.19,4.04,.76,20.57,.67,24.9-.71,3.18-1.59,6.54-2.47,9.9-.53,10.08,.53,20.52-1.95,30.42q-5.66,3.71-7.07,5.48c1.37,3.39,2.63,13.05-4.77,20.16,.89-6.36,3-13.09-.35-18.92,0-6.89,5.31-6.01,8.31-11.14,1.24-8.84,1.06-16.25,1.06-24.92,2.47-10.08,2.2-22.21,2.37-26.28-.98,2.87-3.94,26.48-8.18,36.51-2.07,4.89-4.31,6.7-5.25,7.92-.93,4.28,.18,10.06-.71,14.05-1.15,5.15-17.01,52.98-15.19,56.62,3.34-.25,6,0,8.13,.55l5.63-19.77s-1.28,8.48-1.28,16.19v5.51c2.97,2.11,3.45,4.87,3,5.57-9.31-4.56-25.01-3.48-30.67-3.3q-36.61-4.77-54.83-6.54c-15.92,.18-31.83,.35-47.75,.53-20.16-7.96-40.5-15.74-60.84-23.52-12.91-4.07-30.24-12.56-43.5-6.55-3.4,2.38-26.78,29.78-33.6,10,19.03-3.48,27.88-18.85,50.58-18.85,27.41,5.13,54.29,18.92,79.94,29.54,16.8-16.8,17.05-30.78,12.81-53.59-11.35-20.88-44.34-35.25-63.11-27.16-13.25,8.22-9.61,42.53-16.57,50.32-.88-5.31-3.93-18.01-4.46-29.85,1.59-5.84,5.01-3.74,7.84-8.33-13.71-37.9-38.38-1.94-60.84,11.67-9.9,8.67-10.26,19.28-11.14,32.01-5.83,13.09-17.15,24.58-19.45,38.91v35.9c-2.3,10.96-5.83,22.46-6.54,33.6,3,4.42,9.9,17.87,16.8,15.03-4.42-6.01-6.54-11.14-8.31-18.57,5.86,6.41,10.16,11.67,16.35,16.09,.88-.35,5.15-.29,6.04-.47-1.95-6.19-6.15-14.51-6.68-21.05,1.85,3.74,8.77,16.06,14.89,21.34,25.06-7.39,38.15-7.17,56.77-.03-22.57-.6-38.24,.95-41.56,5.16,21.48,7.73,39.98,14.58,63.31,15.56h0Zm214.51-251.83v-2.3c-5.18-2.65-11.95-3.38-12.54,6.38,3.28-4.77,9.18-4.97,12.54-4.08h0Zm-13.31,14.36c3.18-2.47,9.24-3.22,12.96-1.45,.18-2.65,.35-5.13,.35-7.6-6.19-1.77-14.9,1.09-13.31,9.05Zm-30.88,154.18c5.31-4.07,8.31-6.37,15.03-5.83,4.26,1.52,6.65,13.61,6.55,17.98,4.63,0,2.8-18.06,.53-20.64-6.37-4.78-15.91-2.73-22.63-.25-16.8,13.09-42.57,14.84-62.73,18.2,23.01,.66,40.98-2.65,63.25-9.46h0Zm-198.62,31.3c28.59-8.64,53.44-19.63,83.12-25.29-41.18-.45-75.2,16.95-70.21,15.56-15.89,2.79-15.8,2.39-40.32-3.36,7.96-.35,16.45-.71,23.87-3.71,27.56-15.74,60.98-25.11,80.29-28.56-15.04-.76-31.9,2.85-40.74,3.91-16.44,3.71-28.58,12.44-43.79,19.34-18.5,3.7-33.53-.92-48.77-12.46-3.24-7.6-7.38-15.39-7.88-22.82-3.12,0-6.27,30.01-1.18,35.11,23.93,7.12,39.8,21.7,65.61,22.28h0Zm17.38,25.28c4.95-4.95,52.6-6.69,56.41-8.16,6.72-7.28,42.88-9.37,81.27-15.77-43.9-3.93-117.87,11.28-166.6,11.28-10.26-3.71-26.71-8.88-36.97-12.42,0,12.39,57.3,24.64,65.89,25.07h0Zm173.61-81.87c6.02-19.02-44.39-10.36-52.01-10.68-5.87-.91-11.29-2.11-16.64-3.35-3.95,.05-7.33,.09-9.25,.09-4.58,0-9.16,3.93-12.04,6.99,19.53,5.37,70.49,5.05,89.94,6.95Zm-34.84-62.42c-4.06-2.67-6.87,1.6-11.33,2.75-1.67,.43-6.48,.95-9.92-.37-3.44-1.32-5.53-4.48-6.33-6.09-5.61,.38-9.02,1.6-10.41,3.5-5.2,7.14,8.46,15.61,20.91,16.38,11.69,.73,22.24-5.67,17.08-16.17h0Zm8.9-215.95c-.35-3.36-.23-9.36-.58-12.54-5.31-7.6-9.55-11.85-6.19-20.87,0-7.26-5.56-8.47-8.22-16.46-.53,3-.53,7.32-.53,18.47,2.3,7.25,6.68,29.63,15.52,31.4h0Zm-.58-19.26c-.21-14.86,1.64-28.54-6.36-42.62-1.29-1.45-6.56-5.05-9.31-2.47,.53,5.84,4.5,8.29,7.7,13.48,3.1,5.02,5.42,12.74,5.86,20.47-1.42,5.66-1.06,6.9,2.12,11.14h0ZM368.56,33.07c8.13,.01,16.11,.71,24.09,2.13,9.05,11.56-31.59,6.85-45.09,17.27,0,0,22.34-4.74,38.39,.31,16.05,5.05,24.54,11.68,24.54,11.68-5.55-7.73-7.16-16.81-4.91-25.92,17.39,5.96,32.12,17.41,40.53,37.4,2.3,28.47,2.48,58.72-1.06,87.19,0,20.97-4.08,38.62-4.78,58.89-5.71,6.85-13.78,16.92-22.49,26.74-8.28,9.33-22.97,27.16-34.99,31.97-4.44,0-8.86,.03-13.24,.09,3.1-1.3,9.35-4.1,10.73-10.12,2.52-10.98,10.26-8.57,15.1-13.61h3.49c3.6,0,2.47-4.29,2.47-4.29l-8.51,.65-.36-.13c-.34-.53-1.45-2.49,.1-3.46,1.79-1.13,11.01-7.9,11.01-10.37,0-.65-.09-1.5-.21-2.39l.64,.29c.33-1.52-.22-6.98-1.75-9.67-.46-1.65-12.85-22.98-4.03-14.93l2.99,4.8c.05-.14,.08-.32,.11-.52,2.41,5.14,5.19,8.5,6.56,6.33,.94-1.49,2.14-2.35,3.26-2.86-.17,.37-.31,.74-.44,1.1-.35,7.61,2.67,12.01,0,26.92,3.19-4.9,10.63-18.91,11.64-25.44,1.22-7.92-3.67-5.6,1.36-12.29,13.35-17.74,12.8-18.63,8.94-32.35,0,10.79-8.5,20.17-13.63,29.36-.55,1.46-1.53,3.03-2.64,4.63l.28-.78c.79-2.21,1.84-9.87,2.59-15.89,.2-.32,.4-.62,.59-.88,3.33-4.73,4.95-15.33,5.73-18.93,.32-.22,.61-.39,.88-.52,1.59-4.78,4.6-6.36,8.84-7.96,7.25-7.25,3.51-21.91-5.86-23.67-.58,2.19-1.61,4.07-2.96,5.66l-.52-.12c-3.64-.82-6.54-6.57-6.33-9.95,.87-13.66-11.56-4.17-14.37-5.11,5.13-3.18,14.73-14.9,21.4-3.81,1.22,2.03,3.02,4.51,6.06,7.14,0,0-1.9-10.27-.95-21.69,.95-11.42,5.71-47.57,5.71-47.57-12.82,0-7.01,42.3-12.58,51.1-1.33-16.48,.61-33.37-10.74-45.55-7.09,16.68-14.41,26.33-34.39,25.8l-4.41,2.45-5.84-3.59-.23,.42c.15,2.42,.21,1.61,.33,6.94,.02,1,.09,2.6,.17,4.53,.37,8.41-.92,8.55-2.04,9.61,.04-3.63-2.33-10.19-3.06-12.64l-8.84,20.14c.73-7.35,1.72-12.85,3.59-19.8-6.23,2.02-24.16,9.94-28.99,5.79,0,0,26.86-9.43,29.55-10.24l.45-.16c.13-.83,.26-1.68,.35-2.57-14.65,4.25-29.4,7.99-44.26,11.43-6.13-6.76-11.02-13.2-12.87-13.65,.52,4.98,1.07,10.8,1.63,17.54,.95,11.42-.95,23.78-.95,23.78,7.01-6.08,4.62-8.98,9.13-14.31,4.51,1.94,13.33,5.68,18.39,7.42,7.01,2.41,15.02,4.62,15.02,4.62l5.81,6.89c1.26,1.91,3.05,4.79,4.23,6.73-.57,3.53-2.11,6.96-5.64,8.65-6.68-.59-16.2-3.23-23.58-3.42-9.37-.24-17.85-4.12-20.07-12.47-9.37,1.77-13.11,16.43-5.86,23.67,4.24,1.59,7.25,3.18,8.84,7.96,1.98,.96,5.12,4.75,14.68,6.16-3.89-2.47-8.49-6.33-10.43-10.4h1.76c4.25,8.49,23.7,7.96,31.13,7.78,0,2.57-3.06,3.38-4.95,4.69-4.41,3.06-8.27,6.62-11.58,11.13,2.31-.82,9.24-3.86,9.94-3.86,4.41-6.93,7.2-6.64,13.03-11.21l.25-.5c1,1.5,2.07,3.1,2.14,3.69,.46,3.57,.48,7.07,.25,10.61,1.39-2.65,3.14-6.5,3.48-9.43,.29-2.46,.44-4.42,.51-5.77l2.61-.33s4.17,10.16,4.47,14.04,2.47-11.48,3.52-3.88c.65,4.68,.55,4.62,.71,10.18,.17,5.55,2.9,12.17,.82,16.06l4.48-1.82,2.27-6.02c.53-.18,1.24-.35,1.95-.53l-.03-.2,2.29,1.12c.28,2.47,.63,5.1-.04,7.95-5.48,1.99-9.48,.29-15.35,3.71-5.87-3.42-9.88-1.72-15.35-3.71-.77-3.28-.2-6.26,.07-9.06-.61,0-1.2,.42-1.76,1.12-.15-.32-.37-.64-.63-.97-2.15-2.69-7.25-11.05-7.25-11.05,0,0,2.95,9.16,2.42,11.86-.54,2.7-4.3,7.01-6.45,10.51-2.15,3.5-5.11,8.09-5.37,11.32l-.03,.45c-1.04,2.87-1.39,6.97-1.11,8.26,3.66-1.79,8.68-1.57,13.66-.91,7.37,.99,14.48,2.23,21.8,2.86,3.88-.33,7.69-.86,11.52-1.41,.48,1.84,.79,5.21-2.63,7.09-2.58,1.42-8.16,2.43-12.91,3.08-5.46-.64-11.68-2.2-16.56-2.41,3.61,5.18-2.04,8.18-8.21,8.54,1.33,2.74,13,4.2,25.49,4.42,2.3,1.64,7.51,5.79,7.96,9.76,.42,3.78-6.6,9.57-10.27,12.32-2.86-.03-5.74-.03-8.63-.03-12.02-4.81-26.71-22.63-34.99-31.97-8.71-9.82-16.78-19.9-22.49-26.74-.7-20.27-4.77-37.92-4.77-58.89-3.54-28.47-3.36-58.71-1.06-87.19,13.98-33.23,45.37-42.83,77.55-42.87h0Zm31.63,242.82l1.41-1.48,.27,3.33-.07,.44c-.46,2.57-1.13,5.77-1.94,9.24-3.05,2.84-7.58,7-11.06,9.94l-6.49,.5s4.39-4.94,10.97-12.07c3.34-3.61,5.54-7.22,6.91-9.9h0Zm-2.66,21.01c-.48,1.87-.98,3.74-1.47,5.54-2.08,5.83-4.44,11.85-6.18,14.73-1.75,2.89-3.57,4.71-5.29,6.28,.28-3.04,.37-6.62,1.01-10.77,.4-2.59,1.02-5.32,1.65-7.76,3.48-2.99,7.56-6.21,10.28-8.02h0Zm20.93-40.74c3.55-3.83,7.11-7.6,10.67-11.14,2.12,11.85,1.77,23.17,11.49,30.42,26.17,5.13,48.99,13.97,73.92,23.7-4.88,4.33-9.76,8.65-14.62,13-4.2-.67-8.76-.86-8.76-.86v5.38c0,1.34-.19,2.62-.47,3.8l-4.1,3.78h-1.16c-1.59-1.21-3.74-2.7-6.19-4-5.06-2.69-18.75-7.76-18.75-7.76,0,0,1.37,6.95,.16,11.96l-1.57,.04c-2.22-.62-11.62-3.33-14.94-5.55-3.78-2.53-10.07-8.84-13.53-16.73-1.98-4.5-3.24-8.81-3.95-11.67,1.06-2.55,2.21-5.31,3.35-8.37-7.8,0-20.2,41.79-19.1,49.52-.56,.56-.78,.76-6.45,2.14-.69-1.17-1.59-2.99-2.72-5.87-.69-1.75-.97-4.01-.98-6.46,3.18-9.98,9.58-27.84,11.73-35.25,2.85-9.83,1.56-20.98,5.97-30.08h0Zm-74.14,54.85c-3.77-9.16-8.1-23.01-8.1-23.01,0,0,2.26,20.97,3.67,27.48,1.41,6.52,2.82,14.17,1.98,17.28-.31,1.16-.94,2.13-1.61,2.88-13.19-3.09-13.31-3.21-14.06-3.97,1.1-7.73-11.3-49.52-19.1-49.52,7.97,21.4,15.88,28.76-3.54,44.39-17.51-2.66-35.37-2.12-53.05-2.3-9.2-8.49-18.57-16.8-27.94-25.11,24.93-9.73,47.75-18.57,73.92-23.7,9.73-7.25,9.37-18.57,11.49-30.42,6.38,6.36,12.76,13.41,19.08,20.29l7.84,15.74s.32-2.77,.61-6.64c4.69,4.94,9.34,9.6,13.92,13.64l.47,.08c3.25,5.85,6.51,13.15,7.85,20.62,.63,3.54,1.01,6.72,1.2,9.57l-.24-.16c-3.84-2.74-14.81-11.52-14.81-11.52,0,0,.14,1.74,.41,4.36h0Zm62.07-154.46c-6.83,.65-14.79,2.72-20.59,3.23-2.44-1.16-3.93-3.16-4.8-5.44,.2-2,.39-4.34,1.04-6.31,.65-1.97,1.63-4.92,1.63-4.92l3.39-1.01c5.45,8.71,10.51,13.78,22.07,12.02-.83,.8-1.73,1.61-2.75,2.42h0Zm-9.48,82.63c-1.51,1.57-4.41,4.41-6.83,5.54-.78,.37-1.54,.73-2.24,1.09-.73,.06-1.48,.14-2.25,.24,1.52-1.06,3.81-2.8,4.97-4.52,1.75-2.57,4.28-4.45,7.15-5.01-.43,1.09-.68,1.88-.8,2.66h0Zm-49.04-22.76c-.21,.96-.34,1.75-.36,2.19,4.57,2,10.87,2,14.21,5.02,.07,.17-.17-.21,.26,.54,.43,.76,1.14,5.91,1.14,5.91l5.29,2.69c3.07,1.56,5.5-7.73,6.76-8.96,.14,1.19,.29,2.64,.29,3.6,0,1.91-1.52,3.62-1.52,3.62l3.61-.95s1.9-.57,1.9-3.05c0-1.68,.25-4.24,.42-5.71,.89-.28,1.81-.52,2.76-.74,.3,1.64,1.19,4.35,3.85,5.88,3.99,2.29,7.02,2.86,8.54,2.86,2.26,0,2.57-2.87,2.49-4.58,.58,1.19,1.16,2.45,1.66,3.61-.73,2.1-1.57,4.04-4.3,4.14-8.3,.29-18.03-1.27-26.33,2.7-8.29-3.97-18.03-2.4-26.33-2.7-3.54-.12-3.9-3.36-4.98-6,.31-.49,.64-1,1.01-1.53,3.76-5.39,6.98-8.09,8.32-8.36,.37-.07,.83-.13,1.29-.17h0Zm16.36-70.24l.34,.47c1.94,2.59,3.22,6.95,3.89,9.74-.45,3.78-.63,7.34-.6,10.45-.8,1.63-2.01,3.71-3.2,4.39l-.39,.23-.11-.35c-1.81-.11-3.92-.2-5.39-.3,.25-.9,.44-1.86,.56-2.9,.68-6.01,1.82-15.54-.79-17.86,.48-.59,1.36-1.53,2.85-2.6,.82-.59,1.85-1,2.84-1.26h0Zm13.37,5.41c-1.32,3.63-.42,11.23,.16,16.31,.13,1.15,.35,2.2,.64,3.18-1.8,.12-4.59,.22-6.62,.38-.61-5.08-1.32-11.39-1.63-17.15,.73-.48,1.97-5.25,3.37-6.23,.97-.68,3.67,2.5,4.08,3.51Zm7.01,36.34c-.4-1.68,.58-3.29,.11-4.63-6.64-3.42-4.28,13.49-3.94,16.25,12.72,8.23,5.53-4.37,3.83-11.62Zm28.58-7.2c3.54-2.46,7.32-5.87,9.03-9.45h-1.76c-3.94,7.88-21,7.97-29.36,7.81,1.16,1.04,2.95,2.43,4.65,2.92,1.38,.4,3.24,.63,4.79,.76,4.1-.19,8.77-.63,11.47-1.6l1.19-.44h0Zm51.7,169.49c2.7,.36,7.92,1.19,13.88,2.96-2.58-3.15-4.51-3.52-7.44-4.78-17.74-7.18,54.96-37.99,66.03-44.12,28.65-4.42,54.82,10.44,75.69,29,7.25,10.79,9.68,24.83,9.33,37.92-4.05-2.69-16.59,6.15-21.37,8.04-.66,.63-1.37,1.22-2.18,1.76-6.71-1.21-13-8.95-11.07-16.15,1.75-6.53,0-5.77-1.75-19.59-1.75-13.81-18.27-25.36-18.27-25.36,0,0,7.76,17.58,10.26,31.39,2.5,13.81-4.01,18.33-11.76,25.36-5.12,4.64-15.37,6.23-21.75,6.76-11.81-15.52-26.65-32.87-57.35-32.27,21.36,4.8,48.34,26.53,48.72,41.53-9.58,5.22-13.73,12.85-15.81,21.76-2.15,1.6-5.54,3.45-10.43,4.37-6.78,1.28-9.05-.16-12.26-.13,.56-3.56-4.16-6.86-5.58-10.3-.42-1.01-.38-2.37-.17-4.11-4.19-2.94-7.9-6.29-18.24-2.71-7.3,2.53-10.86,5.21-12.6,7.21,18.54-4.88,21.1,4.74,14.47,9.79-5.82,4.43-14.64,4.03-28.64,4.03-10.9,0-26.47,1.75-36.37-3.63-.03-3.72,.53-9.07,0-11.76-9.84-12.47-14.17-26.19-16.56-44.8v-.1c2.34-1.95,6.78-5.29,11.6-7.17,7.08-2.76,23.21-8.68,23.21-8.68,0,0-20.45,1.58-29.5,4.34-3.54,1.08-5.8,1.75-7.26,2.14-.78-3.41-1.56-6.8-1.84-8.85,24.55-6.58,59.44-10.24,79.38-12.08-.72,1.28-2.21,2.78-5.27,4-6.72,2.69-16.92,5.12-16.92,5.12,0,0,3.76,0,8.86,1.62,2.27,.72,4.58,2.13,6.46,3.48,.68,.83,1.67,2.19,2.53,4.02h0Zm-45.77,107.55c25.25-4.82,41.32-9.09,67.69-11.65,13.07-1.26,21.47-5.43,25.42-7.89,2.56,.83,3.93,1.48,4.87,1.82-.22,2.19-.47,4.38-.8,6.58-6.19,12.55-81.97,10.96-97.18,11.14h0Zm72.99,5.43c3.95,.05,6.12-.77,9.25,.09,11.27,3.07-.19,8.29-12.44,9.4-39.53,3.6-13.91-5.54,3.18-9.49h0Zm-9.97,67.26s48.82,7.68,57.05,10.97c8.23,3.29,37.3,13.17,37.3,13.17,0,0,4.07,6.35-27.29-2.37-15.94-.27-53.41-3.59-64.15-5.74-11.89-2.38-47.57-14.27-53.28-16.65-5.71-2.38-33.3-6.66-33.3-6.66,0,0,4.28,.48,16.65,1.43,12.37,.95,38.53,7.14,57.08,11.42,11.58,2.67,25.77,3.13,34.78,3.08-18.28-6-24.86-8.65-24.86-8.65h0Zm-110.5-196.49v-2.3c5.18-2.65,11.95-3.38,12.54,6.38-3.28-4.77-9.18-4.97-12.54-4.08h0Zm13.31,14.36c-3.18-2.47-9.24-3.22-12.96-1.45-.18-2.65-.35-5.13-.35-7.6,6.19-1.77,14.9,1.09,13.31,9.05Zm30.88,154.18c-5.31-4.07-8.31-6.37-15.03-5.83-4.26,1.52-6.65,13.61-6.55,17.98-4.63,0-2.8-18.06-.53-20.64,6.37-4.78,15.91-2.73,22.63-.25,16.8,13.09,42.57,14.84,62.73,18.2-23.01,.66-40.98-2.65-63.25-9.46h0Zm198.62,31.3c-28.59-8.64-53.44-19.63-83.12-25.29,41.18-.45,75.2,16.95,70.21,15.56,15.89,2.79,15.8,2.39,40.32-3.36-7.96-.35-16.44-.71-23.87-3.71-27.57-15.74-60.98-25.11-80.29-28.56,15.04-.76,31.9,2.85,40.74,3.91,16.44,3.71,28.58,12.44,43.79,19.34,18.5,3.7,33.53-.92,48.77-12.46,3.24-7.6,7.38-15.39,7.88-22.82,3.12,0,6.28,30.01,1.18,35.11-23.93,7.12-39.8,21.7-65.61,22.28h0Zm-319.21,169.24c-3.18-7.96-8.49-12.38-12.56-19.45q-3.54-13.09-4.95-15.74c-5.15-1.35-15.39-10.94-15.29-27.73,2.15,.74,6.35,5.84,10.65,11.2,26.59,33.11,12.16-19.5,.39-25.39-2.29-.18-4.6-.35-7.07-.53-12.86-8.74-18.03-24.08-23.11-38.3-.41-.53-.76-1-1.01-1.37-2.67-4.02-3.9-14.4-8.88-12.51,1.88,4.99,5.55,13.54,9.13,23.17,2.3,7.25,4.42,14.5,6.54,21.76-.53,12.91-1.76,26-1.76,38.91,4.42,15.39,17.86,27.77,30.24,37.31,6.01,2.83,11.85,5.66,17.68,8.67h0Zm-46.16-110.95c5.82,8.58,12.21,18.24,19.1,23.94,19.46,0,6.19-22.81,2.48-32.19-7.64-4.46-10.53-10.3-19.67-9.74-11.52,.68-4.4,12.53-1.91,17.99Zm114.78-6.31v-1s-11.75-3.19-11.75-3.19c-5.75,.57-12.47,.54-18.27-1.31-13.42-4.27-15.86-6.71-15.86-6.71l.45,.02c-5.56-2.26-17.87-3.83-19.67-.49-.48,.89-.72,1.97-.83,3.09,4.76,3.77,11.42,7.35,13.22,8.53,17.88,4.83,34.47,2.24,52.7,1.06Zm-37.47,61.64c-3.96,.38-7.96,.75-11.8,.65-.88,.89-1.69,1.89-2.27,3.02-2.75,5.27-3.25,16.32-3.25,17.58s-2.76-5.02-2.76-13.31c0-5.47,1.65-7.86,2.11-9.95-3.27-3.12-7.69-7.74-11.34-10.49-1.26,.86-2.54,2.8-3.59,4.73-.01,5.34-.05,10.7-.18,16.15-3.62,19.45-4.33,23.4,9.33,38.05l.79,.86c2.38-.17,4.45-1.17,4.45-3.45v-11.05s1.97,4.34,4.33,9.87c2.36,5.52,3.15,7.89,14.16,16.57,1.38,1.09,2.81,2.03,4.23,2.88,1.16-1.65,1.94-3.83,1.8-6.73-.46-9.59-10.5-27.39-11.87-32.41-1.37-5.02,1.37-8.22,7.3-5.93,5.94,2.28,20.09,7.76,26.93,5.02,6.85-2.74-.46-7.3-7.3-11.41-6.59-3.95-17.42-7.92-21.06-10.65h0Zm.19-53.42c-3.94-.28-8.39-.55-13.65-.97-.52-.15-1.08-.36-1.69-.63-.93,1.15-1.85,3.25-2.59,6.92-2.36,11.84-1.18,13.81-1.18,13.81,0,0-5.5-4.73-4.32-14.6,.11-.92,.13-1.82,.07-2.67-1.57-1.84-4.52-4.54-9.84-7.55-3.5-1.98-7.54-3.79-11.45-5.46-.12,11.15,3.56,26.16,8.54,34.76,9.55,6.37,13.09,17.86,24.94,20.69,16.33,.93,19.95,.43,35.94,5.01,1.33,.38,2.88,.25,4.49-.18-1.07-.7-2.36-1.6-3.82-2.86-1.41-1.21-3.38-2.45-5.62-3.63-2.87-.07-6.14,.18-9.29,.18-6.56,0-23.51-7.92-23.51-7.92,0,0,8.17-.33,15.36-.55,3.77-1.27,13.12-4.82,15.3-9.53,2.74-5.93-.91-7.3-4.56-13.69-2.02-3.54-8.09-7.92-13.11-11.12h0Zm107.99-30.53c3.2,2.16,6.48,4.27,9.58,6.76-1.02,5.11-15.43,12.67-18.21,14.5-11.73,3.17-22.91,3.14-34.36,2.41,2.28-1.46,4.93-2.85,7.92-3.92,3.76-1.35,6.94-2.1,9.74-2.64,5.51,.58,10.91,1.02,15.05-1.29,9.01-5.02,5.5-1.51,8.01-9.54,.83-2.67,1.61-4.71,2.28-6.27Zm-64.63,78.13s-.48-10.94,.95-16.65c1.43-5.71,1.9-19.98,1.9-19.98l2.38-6.18s3.33,18.07,3.33,21.4-8.56,21.41-8.56,21.41Zm6.66-60.89s-4.28,2.38-3.81-7.61c.48-9.99,1.43-17.12,1.43-17.12,0,0,6.18,9.04,6.18,17.6s-3.8,7.14-3.8,7.14Zm-5.07,85.92c.17-1.95,.46-3.79,.86-5.45l1.58-.11c5.86-.47,6.56-.71,13.12-4.24,.72-.39,1.4-.68,2.02-.89,.73,.97,.98,2.18,.33,3.73-.63,1.5-1.78,2.83-3.21,4.03-3.13,1.47-6.36,2.53-8.77,3.03-2.47,.52-4.44,.27-5.93-.1h0Zm49.11-18.55c.63,0,1.25,.01,1.87,0,.88,.89,1.69,1.89,2.27,3.02,2.76,5.27,3.25,16.32,3.25,17.58,0,.84,1.23-1.72,2.05-5.99l.65,1.74c2.05,5.4-1.54,12.33-2.31,17.47l-.02,.12c-.79,1.77-2.07,4.71-3.51,8.07-2.36,5.52-3.15,7.89-14.16,16.57-1.55,1.22-3.14,2.26-4.74,3.18-.63-4.98-2.33-13.25,1.94-18.95,5.38-7.19,9.73-22.87,10.24-30.83,.32-5.02,1.47-9.23,2.46-11.98h0Zm22.98-7.13c.02,4.91,.07,9.85,.18,14.86,3.62,19.45,4.33,23.4-9.33,38.05l-.79,.86c-.9-.06-1.76-.25-2.48-.58,0-1.43-.07-3.1-.21-5.04-.51-7.45,.51-20.05,3.59-31.86,1.85-7.12,6.02-12.85,9.04-16.28h0Zm-.18-59.45c4.63-2.81,8.84-4.81,11.32-4.04,1.77,11.14-2.3,30.06-8.14,40.14-9.55,6.37-13.09,17.86-24.93,20.69-16.33,.93-19.95,.43-35.95,5.01-1.91,.55-4.21,.08-6.58-.89,1.63-1.29,3.2-2.66,4.3-3.76,2.89-2.89,9.96-1.84,16.52-1.84s23.51-7.92,23.51-7.92c0,0-16.42-.65-23.22-.71,4.65-1.72,6.94-3.02,10.48-7.22,5.51-6.53,5.51-16.07,10.01-15.57,4.5,.5,2.51,11.05,5.51,12.56,3,1.51,1-1.01,5.01-5.02,4-4.02,2-4.02,3.5-9.54,1.1-4.05,5.69-14.57,8.66-21.88h0Zm44.57,10.58c-5.82,8.58-12.21,18.24-19.1,23.94-19.46,0-6.19-22.81-2.48-32.19,7.64-4.46,10.53-10.3,19.67-9.74,11.52,.68,4.4,12.53,1.91,17.99Z"/>
          <path id="_199952408" data-name=" 199952408" class="cls-8" d="M378.24,416.53c-.06-6.86-1.23-25.03-.46-30.89,.8-6.03-1.6-24.71-1.2-29.94,.23-2.93,.4-5.03,.67-6.39h.05c.32,.04,1.09,.24,2.19,.55,1.65,.76,3.18,2.36,4.06,5.35,1.19,4.04-.76,20.57-.67,24.9,.71,3.18,1.59,6.54,2.47,9.9,.53,10.08-.53,20.52,1.94,30.42q5.66,3.71,7.07,5.48c-1.37,3.39-2.63,13.05,4.78,20.16-.89-6.36-3-13.09,.35-18.92,0-6.89-5.31-6.01-8.31-11.14-1.24-8.84-1.06-16.25-1.06-24.92-2.47-10.08-2.2-22.21-2.37-26.28,.98,2.87,3.94,26.48,8.18,36.51,2.07,4.89,4.31,6.7,5.25,7.92,.92,4.28-.18,10.06,.71,14.05,1.15,5.15,17.01,52.98,15.19,56.62-1.14-.08-2.22-.12-3.21-.1-2.2-3.72-4.38-9.28-6.07-12.46-1.82-3.43-3.09-4.07-3.67-3.83l-.81-2.83s.2,1.36,.45,3.51v.05c.14,1.16,.28,2.54,.42,4.06v.06s.21,2.7,.21,2.7v.04s0,.02,0,.02v.21s.02,.12,.02,.12v.08s.03,.42,.03,.42v.21s.01,0,.01,0v.21s.02,.15,.02,.15v.07s.01,.21,.01,.21l.04,.86v.22s.03,.41,.03,.41v.41s.01,.03,.01,.03v.22s0,.11,0,.11v.25s0,.06,0,.06v.06s0,.16,0,.16v.56s.01,.08,.01,.08v.66s0,3.55,0,3.55c-1.66-4.99-6.99-20.49-10.75-25.51-4.51-6.01-6.77-13.53-6.01-18.42,.75-4.89,1.88-7.89,0-9.4-1.44-1.16-7.08-7.61-9.63-10.56h0Zm95.61,224.02c-2.3,1.48-6.02,6.02-9.85,10.79-1.37,1.71-2.64,3.18-3.8,4.45,.36-2.08,.9-5.03,1.67-9.07,1.97-10.26,9.04-16.57,7.86-16.18-1.18,.4,2.36-2.76,4.72-1.19,1.99,1.33,2.01,4.91-.62,11.2h0Zm16.69-30.99l-2.52,8.62c.53,12.91,1.76,26,1.76,38.9-4.42,15.39-17.86,27.77-30.24,37.32l-4.38,2.08c3.1-5.01,7.08-11.36,9.98-15.7,5.49-8.23,12.62-15.36,12.62-27.98s.55-27.43,.55-27.43c0,0,6.53-8.1,12.23-15.81Zm-2.52-17.44c-5.82,8.58-12.21,18.24-19.1,23.94-1.42,0-2.68-.12-3.77-.35-.65-4.41,3.58-11.28,10.49-21.86,7.47-11.44,15.73-10.26,15.73-10.26,0,0-.72,2.38-2.06,5.8-.49,1.01-.94,1.93-1.3,2.73Zm-62.23,61.46c1.87,5.66,2.26,14.05,2.26,15.14,0,.35,.21,.1,.53-.62-.09,1.66-.25,3.38-.51,5.07-1.57,9.86-7.08,26.05-12.98,24.86-5.9-1.19,.79-7.1,3.54-16.97,2.76-9.87,3.54-26.44,3.54-26.44l3.63-1.04h0Zm17.87-6.64c.03,2.94,.08,5.91,.15,8.91,3.55,19.08,4.3,23.24-8.59,37.24-.63-.33-1.08-1.02-1.26-2.17-1.18-7.5,3.94-18.15,3.94-26.44,0-5.49,3.44-13.06,5.77-17.54h0Zm11.52-64.07c.05,5.06-.67,10.9-1.95,16.59-2.6,5.29-5.72,10.37-8.26,12.14-5.11,3.55-7.08,10.26-9.44,13.42-2.36,3.16-7.87,5.92-7.08,2.76,.79-3.16,7.87-10.66,9.83-13.81,1.97-3.16,2.36-9.86,2.36-15.39s11.41-15,11.41-15c0,0,1.55-.6,3.13-.72h0Zm-44.49-360.48c-.15,7.18,2.62,11.77,.04,26.21l.18-.3c-.89,2.61-1.44,4.57-1.44,4.57,0,0,14.14-11.79,17.66-22.39,3.52-10.61-.71-9.32,.83-17.94,.63-3.49,7.69-10.77,8.43-13.55,1.1-4.06,1.92-7.75,1.27-12.2-1.1-7.51-1.98-16.57-1.98-16.57,0,0-2.64,2.21-2.64,5.3,0,1.59,.1,3.18,.19,4.96l-.54-1.96c0,8.75-5.6,16.56-10.45,24.11,1.39-5.26,2.97-11.15,4.49-15.72,2.16-6.52,3.38-13.36,4.11-17.25,1.29-.83,2.8-1.46,4.49-2.09,7.25-7.25,3.51-21.91-5.86-23.67-.39,1.47-.99,2.78-1.74,3.98-1.27-.88-2.58-1.87-3.62-3.2-1.57-2-5.08-13.1-.89-10.37l12.01,7.84s-.43-29.28,2.02-46.17c2.45-16.89,6.01-22.19,7.08-22.33,1.07-.15,.5,.02,.82,.15,.33,.71,.65,1.43,.96,2.17,2.3,28.47,2.48,58.72-1.06,87.19,0,20.97-4.08,38.62-4.78,58.89-5.71,6.85-13.78,16.92-22.49,26.74-7.79,8.78-21.25,25.07-32.83,30.97,.79-3.03-.66-8.53-.66-8.53,.77-7.7,6.65-9.38,8.33-10.83,4.27-3.69,6.3,4.62,11.92-4.41,1.89-3.05,3.61-8.57,3.99-12,.1-.89-.06-2.05-.33-3.25,.33-3.52,.76-8.2,1.07-12.05,.18-2.22,.74-4.38,1.44-6.29h0Zm38.73-23.53c.35-3.36,.23-9.36,.58-12.54,5.3-7.6,9.55-11.85,6.19-20.87,0-7.26,5.56-8.47,8.22-16.46,.53,3,.53,7.32,.53,18.47-2.3,7.25-6.68,29.63-15.52,31.4h0Zm.58-19.26c.21-14.86-1.64-28.54,6.36-42.62,1.29-1.45,6.56-5.05,9.31-2.47-.53,5.84-4.5,8.29-7.7,13.48-3.1,5.02-5.42,12.74-5.86,20.47,1.42,5.66,1.06,6.9-2.12,11.14Zm-24.12,68.73c1.08-1.12,2.17-2.22,3.25-3.3,2.12,11.85,1.77,23.17,11.49,30.42,26.17,5.13,48.99,13.97,73.92,23.7-3.89,3.44-7.77,6.88-11.65,10.34l-.53-.17c-5.8-1.93-23.2-5.8-19.34-1.93,3.87,3.87,0,7.73,0,7.73,0,0-3.22-3.22-17.4-10.96-14.18-7.73-27.07-13.58-27.07-13.58,0,0-6.6-4.29-4.95-8.91,1.65-4.62,1.32-8.25,1.32-8.25,0,0-11.88,1.32-13.86,8.91-1.98,7.59-9.24,19.46-9.24,19.46,0,0,.99-3.3,1.32-6.27,.33-2.97,7.59-26.72,7.59-32.99,0-2.85,2.45-8.68,5.12-14.21h0Zm-14.89,79.8c-.17,1.51-.2,2.74-.08,3.57-.29,.29-.49,.47-1.35,.78l-.66-.1c-3.62-.68-4.07-4.07-4.07-4.07,0,0-1.36-6.34,1.13-12.22,2.49-5.88,3.62-9.73,3.62-9.73,0,0-.23,17.65,1.13,21.05l.28,.74h0Zm-26.77-121.19c.21,1.85-.24,6.46-.48,8.51l-6-.17c1.8-2.97,1.68-11.14,6.48-8.34Zm15.01-27.91c8.39-.37,18.34-1.96,21.23-7.73h1.76c-.9,1.89-2.39,3.71-4.1,5.38-3.22,1.76-7.4,3.62-10.95,3.8-4.15,.21-6.62-.69-7.94-1.45h0Zm9.88-139.14c11.87,4.69,22.31,12.15,30.1,23.43-3.8,.29-8.44,1.61-10.87,4.26-3.63,3.96-11.22-1.32-15.84-14.84-1.55-4.55-2.45-8.91-3.39-12.85Zm-29.91,290.24c2.58,.54,4.6,2.69,4.98,7.65l-.55-.46c-.76-.92-1.64-1.64-2.57-2.18-1.78-1.57-3.35-3.09-3.26-3.53,.08-.39,.7-.94,1.42-1.48h0Zm-3.45,8.69c4.47,.13,8.87,2.36,9.36,6.86-.23,.31-.46,.66-.68,1.02-2.13-1.79-5.21-2.87-7.05-5.04-1.02-1.21-1.56-2.15-1.63-2.84h0Zm210.42,247.01c-29.71-8.66-58.89-20.16-88.95-26.88l-3.2-1.08c10.7,.41,23.93,.99,36.64,1.79,23.28,4.93,46.49,10.08,51.19,11.73,9.13,3.2,24.19,.46,29.67-1.82l.49-.2c7.47,.16,19.71,2.2,28.16,4.23-17.72,6.28-34.1,11.4-54,12.23h0Zm-59.08-275.61c3.81-2.25,7.3-4.28,10.27-5.93,28.65-4.42,54.82,10.44,75.69,29,7.25,10.79,9.68,24.83,9.33,37.92-28.07,4.65-23.89-12.55-33.16-33.21-12.92-28.84-35.16-34.43-62.13-27.78h0Zm-37.27,50.15s7.61,19.84,15.37,25.85c11.34,8.78,42.99-5.19-15.37-25.85Zm74.39,28.67c10.21-3.32,20.55-3.89,28.41-.5,10.32,6.41,10.38,28.66,13.2,41.85-3.88-2.32-9.57-6.5-12.48-12.32-4.66-9.35-24.99-22.52-28.8-28.47l-.33-.56Zm114.46,89.43c-.84,5.63-3.5,11.42-6.06,17.16-.93,.4-1.98,.86-3.12,1.33,5.24-9.47,2.89-16.23-6.32-19.14-8.27-2.61-38.56-26.53-23.95-29.23,3.4,2.38,26.78,29.78,33.6,10-9.86-1.8-16.98-6.79-24.72-11.18-.12-4.63-.67-15.56-3.03-22.32-3.06-8.75-9.62-17.93-9.62-17.93,0,0,5.68,17.05,4.37,23.62-.97,4.87-2.67,9.26-3.48,11.2-1.24-.41-2.53-.78-3.86-1.09-4.04-3.17-8.5-8.48-8.81-16.51-.58-14.83-6.08-25.01-9.27-27.91-1.32-1.2-2.8-3.24-4.06-5.23,14.2-21.32,36.14,8.88,56.29,21.09,9.9,8.67,10.26,19.28,11.14,32.01,5.84,13.09,17.15,24.58,19.45,38.91v35.9c2.3,10.96,5.84,22.46,6.54,33.6-2.5,3.69-7.72,13.62-13.38,15.19,2.98-3.39,7.77-11.45,8.26-14.54,.59-3.75-1.18-13.81-1.18-13.81,0,0-.2,2.37-2.16,8.88-.12,.38-.27,.77-.43,1.19-5.66,6.2-9.89,11.33-15.94,15.65-.88-.35-5.15-.29-6.04-.47,.48-1.52,1.09-3.17,1.76-4.89,2.95-1.42,8.06-4.05,11.29-8.19,1.99-2.56,9.84-40.51,5.24-29.73l-5.31,12.43s4.13-35.32,3.74-43.6c-.39-8.29-12.58-23.68-12.58-23.68,0,0,1.1,5.31,1.65,11.28h0Zm-10.94,48.06s-25.21,14.27-33.3,16.17c-8.09,1.9-15.7,2.38-15.7,2.38l-49.95-.95s40.43,13.79,47.09,13.32c6.66-.48,24.74-3.33,30.44-6.66,5.71-3.33,18.55-10.94,22.83-11.89,1.33-.3,2.7-.82,3.96-1.41-1.2,3.76-2.87,7.83-5.17,11.01-5.92,8.19-8.56,6.14-18.96,6.96-4.65,.37-12.31,2.33-19.36,4.39,9.93-.73,20.49,.99,35.08,5.29,5.86-5.05,12.44-16.54,14.62-20.8,.97-4.65,1.63-10.34,2.04-14.65v-7.37l1.6-6.25-15.22,10.47h0Z"/>
          <path id="_199241992" data-name=" 199241992" class="cls-3" d="M150.96,585.79c29.71-8.66,58.89-20.16,88.95-26.88,3.36-1.14,6.73-2.24,10.11-3.33-.39-.02-.81-.03-1.29-.03-5.79,0-26.91,2.15-42.84,4.22-23.08,4.88-45.94,9.96-50.6,11.59-9.13,3.2-24.19,.46-29.67-1.82-.81-.34-2.16-.71-3.88-1.1-11.16-.95-21.08,1.63-27.7,4.11,18.86,6.75,35.94,12.38,56.93,13.26h0Zm111.56,54.35c2.16,.79,6.33,5.85,10.61,11.18,3.06,3.81,5.58,6.48,7.62,8.22,1.64,0,2.93-.85,2.66-3.63-.67-6.85-7.52-19.74-11.28-22.69-3.76-2.95-9.8-2.01-10.34,3.62-.08,.89,.2,2.02,.73,3.29h0Zm-15.34-28.59l1.93,6.61c-.53,12.91-1.76,26-1.76,38.9,.37,1.3,.82,2.59,1.32,3.85,8.73,9.9,19.34,21.1,19.01,16.55-.55-7.68-4.39-17.55-6.58-24.14-2.19-6.58-1.65-20.3-1.65-23.59s0,0-5.48-6.03c-1.72-1.89-4.19-6.59-6.78-12.16Zm3.58-17.02c4.02,5.92,8.29,12.12,12.8,17.03,.48,.12,.96,.21,1.44,.29,4.98,.79,6.29-3.68,1.31-8.68-4.98-5-15.74-9.74-15.74-9.74l.18,1.1Zm44.35,42.54c-.56,.79-1.12,1.7-1.61,2.6-.01,5.34-.05,10.7-.18,16.15-3.35,18.01-4.2,22.72,6.54,34.96,1.1,0,2.02-.16,2.59-.28,2.02-.45-.22-10.82-.22-19.84s-1.37-19.45-1.64-23.47c-.18-2.74-3.3-7.6-5.48-10.12h0Zm-13.04-50.05c.67,10.5,4.05,23.04,8.43,30.6,2.33,1.56,4.32,3.42,6.14,5.39,4.78,3.35,9.86,6.45,11.2,5.71,2.47-1.35-1.35-3.61-2.7-7.21-1.35-3.61-2.47-12.63-7.64-21.2-4.26-7.05-12.61-11.82-15.44-13.29Zm-9.79-432.15c-.07,2.87-.08,6.8-.08,12.56,2.04,6.44,5.74,24.83,12.73,30.09-3.26-5.65-8.18-17.1-8.38-21.11-.26-5.39-1.58-16.57-1.58-16.57,0,0-1.31-2.24-2.7-4.97Zm10.63-13.66c-.62-1.42-1.33-2.84-2.14-4.26-1.29-1.45-6.56-5.05-9.31-2.47,.53,5.84,4.5,8.29,7.7,13.48,1.79,2.9,3.33,6.72,4.39,10.9,.19-3.49,.24-7.78-.17-11.92-.21-2.11-.35-4.02-.46-5.73Zm85.66-108.15c5.68,0,11.32,.3,16.86,.98-5.7,3.51-19.96,4.65-29.21,7.14-16.31,4.38-34.68,17.83-45.57,29.96-.38,.43-.74,.88-1.09,1.35-1.98-4.06-6.82-8.1-10.54-10.77,16.07-21.86,42.52-28.64,69.55-28.67h0Zm5.13,138.24l-1.9,.13c-.61-5.08-1.32-11.39-1.63-17.15,3,2.06,7.58,14.19,3.53,17.02h0Zm-60.01-80.29l9.18,4.52-4.52,5.11s-4.94-4.76-5.36-5.35c-.42-.6,.71-4.28,.71-4.28h0Zm19.77-25.59c2.73,3.43,8.5,11.24,8,15.23-.65,5.2-13.61,12.35-15.87,12.35-1.56,0-8.17-4-12.14-6.5-.37-1.55-.71-3.11-1.06-4.61,3.17-3.24,8.24-8.03,13.84-11.78,3.18-2.13,5.53-3.63,7.23-4.69Zm-31.71,81.91c-4.63,5.22-5.36,14.79,.06,20.22l.41,.15c1.33,2.93,3.13,6.45,4.7,7.91,2.23,2.08,4.85,4.52,9.52,6.11,2.43,2.43,6.49,7.03,8.02,9.48,.17,.28,.26,.55,.26,.83-.53,.64-1.01,1.23-1.34,1.68-.19,.27-.32,.54-.42,.83-5.68,6.28-15.65-1.09-23.21-12.4-2.89,17.91,21.83,37.04,21.62,55.43-1.51-2.4-9.3-13.52-13.22-19.85-3.92-6.33-7.48-12.61-7.48-12.61,3.77,10.28,7.68,20.52,10.65,31.06-2.46-2.13-5.42-4.49-8.28-6.7l-6.17-7.46c-.7-20.27-4.77-37.92-4.77-58.89-3.54-28.47-3.36-58.71-1.06-87.19,1.97-4.69,4.3-8.91,6.92-12.7-5.53,29.88,5.47,56.77,3.81,84.09h0Zm21.97,69.43c-7.28-10.68-.9-15.26,9.76-18.72,3.23-1.05-7.41,16.96-9.76,18.72Zm2.13,12.94c.8-1.88,2.11-4.48,3.86-6.59,1.2-1.12,2.48-2.36,3.77-3.65l.2-.18c.54-.26,1.22-.66,1.93-1.09l-2.07,3.18c-1.84,2.85-3.5,7.7-3.67,11.72-.17,4.02,.17,8.87,.17,8.87l1,4.52,1.91-6.54,.09-.07s3.56,0,5.76,.68l.13,.03c.55,.58,5.82,6.21,3.67,7.6-2.27,1.46-9.39-.16-9.39-.16,0,0,1.14,1.43,3.24,4.06,.54,.67-.1,5.92-.77,6.07l-.84,.85c-2.71-2.47-4.96-4.98-8.29-7.99,.03-.03-1-18.89-.7-21.3h0Zm31.68,29.9c3.57,1.79,7.44,4.78,8.04,7.76,.6,2.98-3.87,5.97-7.74,5.97s-3.28,.9-8.34-1.79c-5.06-2.69-6.42-4.11-8.31-6.36-4.04-4.79,12.91-7.31,16.35-5.59h0Zm13.47-16.46c-2.43,.76-5.25,1.26-7.86,1.26h-4.4c-5-.69-9.84-1.65-11.6-2.09-1.39-.35-3.09-.73-4.6-1.05-.05-1.06,.29-2.55,2.44-4.05,2.76,.6,14.03,3.03,19.23,3.67,5.96,.73,6.86,.73,6.86,.73l-.07,1.53h0Zm-49.76-64.47c-2.62-2.16-5.07-4.74-6.35-7.42h1.76c2.84,5.68,12.52,7.31,20.82,7.72-6.07,1.33-14.51,.54-16.24-.3h0Zm25.3-30.71l4.35,1.14c.3,2,.44,3.89,.52,5.38-.77,.17-3.4,.61-7.16,.12,.68-2.06,1.44-4.37,2.07-6.07l.22-.58h0Zm-6.26,6.19c-5.85-.33-15.03,.34-19.64-.61-3.85-.8-8.83-4.11-11.4-5.97-.66-1.12-1.2-2.34-1.56-3.7h-.06c.97-1.11,1.98-2.39,2.87-3.76,2.6-4.02,4.81-7.43,4.81-7.43,0,0,5.28,1.42,10.55,3.01,1.66,1.54,3.17,3.48,3.39,5.5,.53,4.73,.79,6.84,3.67,8.42,2.88,1.58,6.56-.26,6.56-.26l3.57-7.41c.18,.17,.33,.38,.49,.6,1.4,2.01-1.2,8.64-1.2,8.64l-2.03,2.99h0Zm7.69,29.83c1.46-.94,3.06-1.85,5.01-3.25,2.47,7.35,.6,15.18-.66,17.32-1.44,2.44-5.98-6.18-4.34-14.07Zm9.25,8.96c1.32-2.61,2.82-6.07,3.14-8.77,.23-1.96,.38-3.61,.46-4.88,3.7-1.39,.91,12.57,1.66,16.7l-2.52,7.6,7.38-1.85c.11,2.56,2.68,10.04,1.03,12.26-1.47-.54-4.05-.07-5.41-.27-1.36-.19-3.85-.22-5.88-.68-1.01-.23-2.69,0-4.13,.28-.31-2.65,.11-5.1,.34-7.43h-.05c1.09-1.83,1.8-.09,1.8-.09l.37-7.26c.64-1.05,1.29-2.78,1.81-5.62h0Zm7.31-40.47c-.2,7.24-.56,13.78-.8,14.98-.23,1.18-2.34,1.46-4.51,1.44,.05-.33,.09-.66,.13-1.01,.65-5.76,1.73-14.77-.49-17.54,.86-.66,2.29-1.56,3.16-.99,.55,.37,1.56,1.71,2.52,3.12h0Zm29.74,1.65c-5.72,.81-9.96,1.56-9.96,1.56,0,0-2.03-2.04-2.9-4.79,.17-1.11,.39-2.15,.63-2.87,.82-2.46,1.63-4.92,1.63-4.92l.39,.4c.7,2.26,2.03,6.19,3.13,7.6,.83,1.07,4.13,2.19,7.08,3.02h0Zm-56.86,72.72c.51,1.34,.89,2.79,1.61,3.88h10.73c2.57-1.57,4.63-3.25,4.34-4.5-.43-1.83-2.32-4.26-3.79-5.91-2.51-.22-4.74-.09-5.45-.23-1.12-.23-6.26,5.35-7.44,6.76Zm18.59,4.01c3.39,.19,4.07,.32,4.24-1.71,.23-2.72-1.58-6.56-5.43-7.92l-.25-.09c.59,1.26,1.29,3.09,1.88,5.46,.43,1.72,.14,3.13-.44,4.27h0Zm4.97,99.23l-.28,3.54c-2.78,.3-5.77,1.52-7.77,4.43,.43-7.06,4.1-8.64,8.05-7.97h0Zm-.65,8.75c-.15,2.15-.31,4.54-.46,7.07-2.85,.07-5.8,.94-7.71,2.43-1.17-5.87,3.27-8.98,8.16-9.49Zm-.65,10.45c-.45,8.04-.85,16.8-.85,22.85,0,14.16-1.32,24.38-1.77,29.86-.46,5.48-1.33,16.6-2.46,20-1.13,3.4-6.49,2.55-6.49,5.67,0,21.11,16.26,52.65-5.93,64.03,0,0-3.53-1.93-6.56-4.07,.2-1-.48-3.38-3.12-5.25v-5.51c0-7.71,1.28-16.19,1.28-16.19l-.16,.56c.57-3.35,1.12-6.18,1.51-7.78,.72-3.02,1.87-5.39,2.98-8.24l-.13,.84c7.4-7.11,6.14-16.77,4.77-20.16q1.42-1.77,7.07-5.48c2.47-9.9,1.41-20.34,1.95-30.42,.89-3.36,1.77-6.72,2.47-9.9,.09-4.32-1.86-20.85-.67-24.9,1.24-4.2,3.74-5.69,6.12-5.9h0Zm-12.7,50.7c-.43,1.52-.91,2.92-1.42,4.16-4.24,10.2-7.91,10.77-7.91,10.77,0,0-1.42,7.94-1.42,12.47s-4.23,20.68-5.36,27.48c-.89,5.36-4.41,19.36-5.86,25.03-1.47-.14-3.13-.15-5.01,0-1.82-3.64,14.04-51.47,15.19-56.62,.9-3.99-.21-9.77,.71-14.05,.94-1.22,3.18-3.03,5.25-7.92,4.24-10.02,7.2-33.64,8.18-36.51-.18,4.07,.1,16.2-2.37,26.28,0,3.1,.04,6.02,0,8.92h0Zm70.79,84.57c6.02-.33,11.62,0,14.55,.08q36.61-4.77,54.83-6.54c15.92,.18,31.83,.35,47.75,.53,15.57-6.14,31.26-12.18,46.97-18.19,22.4-7.67,38.32-13.99,47.86-12.93,0,0-18.92,28.21-30.72,29.19-11.8,.98-26.7,5.54-33.02,7.43-11.77-.2-28.2-.9-32.24-.73-4.69,.21-11.83,.61-11.83,.61,0,0,7.65,2.46,16.73,4.4l-.92,.04c15.18,2.7,39.05,9.08,61.97,19.32,4.52,2.88,8.47,5.46,8.47,5.46,0,0-19.76-2.83-31.34-6.51-11.58-3.68-33.33-2.55-38.69-2.55-3.96,0-33.63-.92-48.88-1.4-14.9-3.68-34.49-8.5-41.61-10.35-6.73-1.75-20.04-5.25-29.87-7.85h0Zm57.2,34.18c1.24-.45,2.46-.87,3.59-1.26,25.91-8.67,14.86-5.95,40.97-8.23,7.53,1.11,17.88,2.92,26.24,5.42,15.04,4.51,22.56,7.9,24.81,8.65,2.26,.75-16.16-1.5-25.94-2.63-9.77-1.13-36.09-2.63-48.87-1.13-10.06,1.18-16.63-.18-20.8-.82h0Zm-71.39-6.29c-2.08-3.02-3.15-6.92-3.67-9.54,.74-1.13,1.56-1.96,2.48-2.29,6.72-.53,9.73,1.76,15.03,5.83,14.91,4.55,27.9,7.56,41.76,8.84,2.67,1.56,4.57,3.29,1.4,3.96-6.29,1.32-22.29,.79-33.3-.79-7.63-1.09-18.03-4.2-23.7-6.01h0Zm-63.48-212.81c-2.18-6.27-3.87-11.65-3.87-11.65,.02-2.54-.92-4.54-1.3-6.98,.04-.33,.33-2.98,.6-6.6,1.04,1.09,2.07,2.15,3.1,3.21,2.67,5.12,22.26,33.57,11.86,27.79l-10.39-5.77h0Zm-14.04,27.95c-1.51-12.05-10.59-40.79-17.38-44.94-4.99-6.91-9.73-8.22-8.67-3.96,1.32,5.28,11.22,19.14,4.29,20.45-6.93,1.32-20.78,11.22-20.78,11.22l11.55,9.57s-16.83-3.63-32.66-6.93c-10.95-2.28-22.35-2.87-27.7-3.1-4.04-3.6-8.08-7.18-12.13-10.77,24.93-9.73,47.75-18.57,73.92-23.7,9.33-6.96,9.39-17.65,11.25-28.98l3.66,4.57s.87,5.25,5.68,21.87c2.45,8.47,17.02,53.44,8.97,54.7h0Zm127.24,19.94c.72,3.92-6.87,8.08-14.72,21.55-7.06,12.12-3.52,15.67-13.64,26.42,.47-5.34,1.05-10.43,1.79-13.89,2.32-10.76,13.04-27.62,13.04-27.62,0,0-4.92,3.49-14.78,20.65-7.42,12.93-10.24,26.5-11.17,32.42-1.11,1.11-2.24,2.21-3.35,3.28,0-1.23-.06-2.34-.23-3.18-9.84-12.47-14.17-26.19-16.56-44.8v-.1c2.34-1.95,6.78-5.29,11.6-7.17,7.08-2.76,23.21-8.68,23.21-8.68,10.59,1.62,23.46-6.32,24.83,1.12Zm110.26,107.14c-5.48,2.82-16.11,10.96-26.14-1.2-7.27-12.65-10.31-36.11,2.12-45.86,21.48-16.83,39.8,38.93,24.02,47.06h0Zm-30.15-96.32c12.63,3.92,24.59-4.58,18.47-24.7-6.12-20.12-13.77-22.53-19.19-22.29-5.42,.25-6.54,.85-10.87,1.95-10.88,10.57-28.07,13.05-14.78,26.33,7.55,7.54,15.97,15.48,26.37,18.71h0Zm-58.85-13.12c40.9,1.58,21.9-16.48,3.58-4.49l-4.68,3.92,1.1,.57Zm-15-12.35c-6.59,2.77-17.99,5.41-26.56,7.45-13.74,3.28-31.16,7.56-41.9,9.79-.54-2.4-1.02-4.6-1.22-6.09,20.94-5.62,49.4-9.1,69.69-11.15h0Zm-229.54,185.24c4.44,.94,9.65,2,14.99,3.03,14.68,2.84,36.99,5.39,36.99,5.39,0,0-14.12-5.95-23.44-9.07-5.72-1.91-10.81-3.92-15.72-5.26,4.14-2.34,7.82-4.55,11.48-5.51,7.62-1.98,36.14-4.25,46.31-7.37,6.78-2.08,11.79-4.15,15.05-5.39,3.34-2.5,7.15-5.14,9.46-6.07,1.78-.71,2.54-1.56,2.79-2.34-8.7-1.71-18.82-1.05-23.13-.92q-36.61-4.77-54.83-6.54c-15.92,.18-31.83,.35-47.75,.53-20.16-7.96-40.5-15.74-60.84-23.52-12.91-4.07-30.24-12.56-43.5-6.55-3.4,2.38-26.78,29.78-33.6,10.01,15.87-2.9,24.68-14.07,40.34-17.7,4.04-3.17,8.5-8.48,8.81-16.51,.58-14.83,6.08-25.01,9.27-27.91,1.32-1.2,2.8-3.24,4.06-5.23-14.19-21.32-36.14,8.88-56.29,21.09-9.9,8.67-10.26,19.28-11.14,32.01-5.83,13.09-17.15,24.58-19.45,38.91v35.9c-2.3,10.96-5.83,22.46-6.54,33.6,3,4.42,9.9,17.87,16.8,15.03-4.42-6.01-6.54-11.14-8.31-18.57,5.86,6.41,10.16,11.67,16.35,16.09,.88-.35,5.15-.29,6.04-.47-.48-1.52-1.09-3.17-1.76-4.89-2.95-1.42-8.28-4.34-11.28-8.19-4.31-5.53-3.35-4.8-1.68-8.65,1.68-3.84,5.75-19.94,5.75-19.94,0,0,.74,12.43,2.57,21.15,2.18,4.26,8.76,15.75,14.61,20.8,14.59-4.3,25.14-6.01,35.08-5.29-7.05-2.05-14.72-4.02-19.36-4.39-10.4-.82-13.05,1.23-18.96-6.96-5.91-8.19-7.75-22.1-7.75-22.1,0,0,29.97,10.94,39.01,12.36,9.03,1.42,15.81,.28,15.81,.28,0,0,64.1-13.31,73.14-16.43,9.03-3.12,25.97-.86,37.84-3.69,.96-.23,1.89-.48,2.8-.77h0Zm87.97-60.37c.65-3.63,1.31-6.64,1.98-9.33-2.28-.3-5.38-.79-9.44-1.92-10.93-3.06-45.04-5.25-59.04-5.68-14-.44-22.3,.44-23.18,4.81-.36,1.78-.19,3.8-.39,5.77,20.56,7.35,77.14,6.21,90.06,6.36h0Zm-4.3-69.07c-14.02,15.06-12.52,6.53-12.52,6.53,0,0,20.78-30.14,23.03-33.9,1.12-1.86-.6-4.34-2.6-6.37-26.34-6.67-19.79,8.1-36.19,26.55-5.16,5.8-11.37,11.51-17.4,16.44,1.88,1.38,8.89,6.66,11.57,10.57,4.88-1.99,13.66-5.85,17.64-9.39,5.67-5.05-3.46,8.2-11.01,11.68l-4.14,1.89c1.21,2.21,1.58,5.86,7.25,6.69,30.42-14.4,72.15-82.01,24.39-30.68h0Zm-51.14,13.55c-1.78,1.35-3.51,2.62-5.16,3.77-.06,14.72,26.13,8.88,5.16-3.77Zm33.44-51.19c-12.58-.9-26.12-.5-37.14,2.29-24.78,6.26-46.03,25.06-48.21,30.5-2.18,5.45,11.71,19.61,17.7,22.33,3.7,1.68,9.37,3.16,13.17,4.04,7.54-4.04,22.86-12.72,30.35-20.24,10.06-10.09,23.84-33.9,24.13-38.93Zm13.75-14.26c-29.34-4.25-57.46-6-57.46-6.36-.31,.19-.1,.75,.43,1.52,16.92,8.64,38.68,14.97,57.03,4.84h0Zm-48.18,5.65c-15.92-10.53-46.11-29.48-61.81-38.19-28.65-4.42-54.82,10.44-75.69,29-7.25,10.79-9.68,24.83-9.33,37.92,2.16-1.43,6.77,.62,7.93,2.15-.2-30.43,20.2-46.46,26.01-48.8-17.34,7.66-18.06,66.09,19.03,21.68,14.51-17.38,22.83-31.8,22.83-31.8,0,0,8.6-3.78,5.37,8.08-3.32,12.22-24.04,36.84,3.02,16,27.61-21.27,26.68-.12,59.52,6.45,6.85,1.37,8.98,1.91,8.98,1.91,0,0-2.64-1.95-5.86-4.4h0Zm-18.86,130.84c18.46,1.82,42.57,2.31,59.21,3.13-1.07-1.65-3.54-4.49-8.77-7.11-8.01-4.02-35.54,2.01-42.05,3.52-1.75,.4-4.81,.51-8.39,.46h0Zm51.05,47.98c10.75-2.04,21.69-4.49,24.51-5.14,4.44-1.02,10.58-1.02,15.36-5.8,3.1-3.1,4.53-8.17,5.16-11.36-.74-1.13-1.56-1.96-2.48-2.29-6.72-.53-9.72,1.76-15.03,5.83-15.11,4.62-28.25,7.64-42.32,8.89-8.11,1.84-14.74,3.26-14.74,3.26,0,0,10.73,6.23,22.31,6.51,2.54,.06,4.97,.09,7.23,.1h0Zm-168.41-79.17c6.41,1.68,12.78,3.75,19.11,6.07,10.54-1.05,33.26-4.8,44.61-17.86,9.99-11.5,4.51-25.6-.3-33.8-14.28-9.11-32.2-13.19-44.25-7.99-13.25,8.22-9.61,42.53-16.57,50.32l-.02-.12c-.3,.54-.68,1.09-1.14,1.65l-1.43,1.74h0Zm-2.69,91.71c27.24-8.24,51.08-18.59,78.94-24.45,4.06-.56,7.72-.89,10.1-.66,5.93,.57,45.18-6.23,45.18-6.23,0,0-52.53,1.7-57.89,1.7s-27.11-1.13-38.69,2.55c-11.58,3.68-31.34,6.51-31.34,6.51,0,0,3.96-2.58,8.47-5.46,22.92-10.25,46.79-16.62,61.97-19.32l-.92-.04c9.08-1.94,16.73-4.4,16.73-4.4,0,0-7.14-.41-11.83-.61-4.69-.21-26.09,.77-37.5,.77s-26.16-.48-34.25,2.85c-.84,.35-1.8,.8-2.87,1.31-4.68-.08-10.12-.57-16.16-1.78-21.41-4.28-21.88-9.51-27.11-10.94-5.23-1.43-20.93,5.71-6.18,19.03,4.64,4.19,9.34,7.12,13.99,9.02l-.19,.02c-7.32,.7-21.52-4.98-28.6-8.07-2.87-6.43-5.87-12.94-6.29-19.19-3.12,0-6.27,30.01-1.18,35.11,23.93,7.12,39.8,21.7,65.61,22.28h0Z"/>
        </g>
      </g>
    </g>
  </g>
</svg>