<?xml version="1.0" encoding="UTF-8"?>
<svg width="1200pt" height="1200pt" version="1.1" viewBox="0 0 1200 1200" xmlns="http://www.w3.org/2000/svg">
 <g fill="#fff">
  <path d="m1120.1 602.66c-14.922-107.5-62.793-207.73-137.02-286.9-74.23-79.172-171.17-133.39-277.49-155.2-106.31-21.809-216.77-10.137-316.18 33.418-99.406 43.551-182.88 116.84-238.91 209.78-56.039 92.941-81.902 200.96-74.023 309.21 7.8789 108.24 49.109 211.38 118.02 295.23 21.492 26.379 53.688 41.727 87.715 41.812h635.77c32.496 0.39453 63.488-13.66 84.602-38.363 47.25-56.066 82.145-121.48 102.39-191.95s25.406-144.43 15.129-217.02zm-175.12 360.82c-6.9062 7.5664-16.758 11.766-27 11.512h-635.77c-11.676-0.078125-22.691-5.4102-30-14.512-73.734-89.699-109.92-204.45-100.97-320.21 8.9453-115.77 62.328-223.59 148.97-300.9 82.066-73.945 188.71-114.71 299.17-114.38 17.695-0.003906 35.371 1 52.953 3 98.75 11.926 190.81 56.074 261.94 125.61 71.125 69.531 117.35 160.57 131.51 259.03 8.8164 62.281 4.3945 125.72-12.973 186.18-17.371 60.457-47.297 116.57-87.828 164.67z"/>
  <path d="m891.9 595.46c-9.8555 1.3516-18.773 6.5625-24.785 14.488-6.0156 7.9297-8.6328 17.918-7.2773 27.777 8.4883 58.18-2.9141 117.52-32.359 168.41-5 8.5938-6.3828 18.82-3.8477 28.434 2.5391 9.6133 8.793 17.824 17.383 22.828 5.6875 3.3398 12.16 5.1016 18.75 5.1016 13.383-0.015625 25.746-7.1602 32.438-18.75 37.93-65.336 52.688-141.57 41.887-216.34-1.375-9.8242-6.5898-18.699-14.496-24.688-7.9062-5.9883-17.863-8.6016-27.691-7.2656z"/>
  <path d="m600 412.5c10.5 0 21.301 0.71094 31.352 1.6133 11.797 1.4609 23.504 3.5898 35.062 6.375 9.7891 2.6055 20.219 1.1328 28.914-4.0742 8.6914-5.207 14.906-13.711 17.227-23.574 2.3203-9.8633 0.55078-20.246-4.9062-28.785-5.4531-8.5391-14.133-14.508-24.062-16.543-14.652-3.5312-29.504-6.1992-44.473-7.9883-13.199-1.2344-26.363-2.0234-39.113-2.0234-89.477 0.10938-175.26 35.703-238.53 98.973-63.27 63.27-98.863 149.05-98.973 238.53-0.28906 59.254 15.246 117.51 45 168.75 6.7461 11.508 19.098 18.562 32.434 18.535 13.34-0.03125 25.656-7.1445 32.352-18.68 6.6953-11.535 6.7578-25.762 0.16406-37.355-23.129-39.855-35.195-85.168-34.949-131.25 0.078125-69.594 27.762-136.32 76.973-185.53 49.211-49.211 115.93-76.895 185.53-76.973z"/>
  <path d="m814.01 460.99c-7.0312-7.0312-16.566-10.98-26.512-10.98s-19.48 3.9492-26.512 10.98l-141.79 141.79v-0.003906c-21.793-6.0586-45.148-2.1289-63.758 10.727-18.609 12.859-30.551 33.316-32.594 55.844-2.043 22.523 6.0234 44.797 22.02 60.789 15.992 15.996 38.266 24.062 60.789 22.02 22.527-2.043 42.984-13.984 55.844-32.594 12.855-18.609 16.785-41.965 10.727-63.758l141.79-141.79h-0.003906c7.0312-7.0312 10.98-16.566 10.98-26.512s-3.9492-19.48-10.98-26.512z"/>
 </g>
</svg>
